<svg width="23" height="18" viewBox="0 0 23 18" fill="none" xmlns="http://www.w3.org/2000/svg">
<g filter="url(#filter0_d_52_214)">
<path d="M4.83333 10H8.16667C8.625 10 9 9.625 9 9.16667C9 8.70833 8.625 8.33333 8.16667 8.33333H4.83333C4.375 8.33333 4 8.70833 4 9.16667C4 9.625 4.375 10 4.83333 10ZM4 0.833333C4 1.29167 4.375 1.66667 4.83333 1.66667H18.1667C18.625 1.66667 19 1.29167 19 0.833333C19 0.375 18.625 0 18.1667 0H4.83333C4.375 0 4 0.375 4 0.833333ZM4.83333 5.83333H13.1667C13.625 5.83333 14 5.45833 14 5C14 4.54167 13.625 4.16667 13.1667 4.16667H4.83333C4.375 4.16667 4 4.54167 4 5C4 5.45833 4.375 5.83333 4.83333 5.83333Z" fill="black"/>
</g>
<defs>
<filter id="filter0_d_52_214" x="0" y="0" width="23" height="18" filterUnits="userSpaceOnUse" color-interpolation-filters="sRGB">
<feFlood flood-opacity="0" result="BackgroundImageFix"/>
<feColorMatrix in="SourceAlpha" type="matrix" values="0 0 0 0 0 0 0 0 0 0 0 0 0 0 0 0 0 0 127 0" result="hardAlpha"/>
<feOffset dy="4"/>
<feGaussianBlur stdDeviation="2"/>
<feComposite in2="hardAlpha" operator="out"/>
<feColorMatrix type="matrix" values="0 0 0 0 0 0 0 0 0 0 0 0 0 0 0 0 0 0 0.25 0"/>
<feBlend mode="normal" in2="BackgroundImageFix" result="effect1_dropShadow_52_214"/>
<feBlend mode="normal" in="SourceGraphic" in2="effect1_dropShadow_52_214" result="shape"/>
</filter>
</defs>
</svg>
